<?xml version="1.0" encoding="UTF-8" standalone="no"?>
<svg
   xmlns:dc="http://purl.org/dc/elements/1.1/"
   xmlns:cc="http://creativecommons.org/ns#"
   xmlns:rdf="http://www.w3.org/1999/02/22-rdf-syntax-ns#"
   xmlns:svg="http://www.w3.org/2000/svg"
   xmlns="http://www.w3.org/2000/svg"
   xmlns:sodipodi="http://sodipodi.sourceforge.net/DTD/sodipodi-0.dtd"
   xmlns:inkscape="http://www.inkscape.org/namespaces/inkscape"
   width="400"
   height="400"
   viewBox="0 0 105.83333 105.83334"
   version="1.1"
   id="svg8"
   inkscape:version="1.0.1 (3bc2e813f5, 2020-09-07)"
   sodipodi:docname="Settings icon.svg"
   inkscape:export-filename="C:\Users\dmull\0 - Data\0 - Trabalho\1 - Portifolio\6 - Dodge the Circle\Assets\Assets\UI\Settings icon.png"
   inkscape:export-xdpi="96"
   inkscape:export-ydpi="96">
  <defs
     id="defs2">
    <marker
       style="overflow:visible"
       id="marker1510"
       refX="0.0"
       refY="0.0"
       orient="auto"
       inkscape:stockid="Arrow1Lstart"
       inkscape:isstock="true">
      <path
         transform="scale(0.8) translate(12.5,0)"
         style="fill-rule:evenodd;stroke:#000000;stroke-width:1pt;stroke-opacity:0.996078;fill:#000000;fill-opacity:0.996078"
         d="M 0.0,0.0 L 5.0,-5.0 L -12.5,0.0 L 5.0,5.0 L 0.0,0.0 z "
         id="path1508" />
    </marker>
    <marker
       style="overflow:visible"
       id="marker1464"
       refX="0.0"
       refY="0.0"
       orient="auto"
       inkscape:stockid="Arrow1Lstart"
       inkscape:isstock="true">
      <path
         transform="scale(0.8) translate(12.5,0)"
         style="fill-rule:evenodd;stroke:#000000;stroke-width:1pt;stroke-opacity:0.996078;fill:#000000;fill-opacity:0.996078"
         d="M 0.0,0.0 L 5.0,-5.0 L -12.5,0.0 L 5.0,5.0 L 0.0,0.0 z "
         id="path1462" />
    </marker>
    <marker
       style="overflow:visible"
       id="marker1430"
       refX="0.0"
       refY="0.0"
       orient="auto"
       inkscape:stockid="Arrow1Lstart"
       inkscape:isstock="true">
      <path
         transform="scale(0.8) translate(12.5,0)"
         style="fill-rule:evenodd;stroke:#000000;stroke-width:1pt;stroke-opacity:0.996078;fill:#000000;fill-opacity:0.996078"
         d="M 0.0,0.0 L 5.0,-5.0 L -12.5,0.0 L 5.0,5.0 L 0.0,0.0 z "
         id="path1428" />
    </marker>
    <marker
       style="overflow:visible"
       id="Arrow1Lstart"
       refX="0.0"
       refY="0.0"
       orient="auto"
       inkscape:stockid="Arrow1Lstart"
       inkscape:isstock="true">
      <path
         transform="scale(0.8) translate(12.5,0)"
         style="fill-rule:evenodd;stroke:#000000;stroke-width:1pt;stroke-opacity:0.996078;fill:#000000;fill-opacity:0.996078"
         d="M 0.0,0.0 L 5.0,-5.0 L -12.5,0.0 L 5.0,5.0 L 0.0,0.0 z "
         id="path866" />
    </marker>
  </defs>
  <sodipodi:namedview
     id="base"
     pagecolor="#ffffff"
     bordercolor="#666666"
     borderopacity="1.0"
     inkscape:pageopacity="0.0"
     inkscape:pageshadow="2"
     inkscape:zoom="1.4"
     inkscape:cx="129.04374"
     inkscape:cy="206.639"
     inkscape:document-units="mm"
     inkscape:current-layer="layer1"
     inkscape:document-rotation="0"
     showgrid="false"
     units="px"
     inkscape:pagecheckerboard="true"
     inkscape:window-width="1920"
     inkscape:window-height="1017"
     inkscape:window-x="-8"
     inkscape:window-y="-8"
     inkscape:window-maximized="1" />
  <metadata
     id="metadata5">
    <rdf:RDF>
      <cc:Work
         rdf:about="">
        <dc:format>image/svg+xml</dc:format>
        <dc:type
           rdf:resource="http://purl.org/dc/dcmitype/StillImage" />
        <dc:title />
      </cc:Work>
    </rdf:RDF>
  </metadata>
  <g
     inkscape:label="Layer 1"
     inkscape:groupmode="layer"
     id="layer1">
    <path
       id="path1518"
       style="opacity:0.998;fill:#ffffff;fill-opacity:0.996078;stroke:#ffffff;stroke-width:7.55905522;stroke-linecap:round;stroke-miterlimit:4;stroke-dasharray:none;stroke-opacity:0.996078;paint-order:fill markers stroke"
       d="M 196.24219 1.8222656 C 192.95997 1.7962496 189.70261 1.8351916 186.85156 1.9863281 C 186.85156 1.9863281 170.1438 3.2547731 159.78711 5.3164062 L 153.71289 58.75 A 148.82903 149.54332 0 0 0 101.31055 89.839844 L 58.25 74.703125 C 57.328967 74.171364 56.345387 73.850607 55.355469 73.726562 C 54.365595 73.602558 53.369833 73.675742 52.421875 73.929688 C 51.473939 74.183708 50.574581 74.618401 49.779297 75.220703 C 48.984031 75.822997 45.61489 76.950366 40.261719 84.478516 C 40.261719 84.478516 30.284005 99.391745 25.105469 109.57031 C 25.105469 109.57031 17.851906 124.67385 14.458984 134.67383 L 56.744141 165.94727 A 148.82903 149.54332 0 0 0 52.751953 200.34766 A 148.82903 149.54332 0 0 0 55.890625 230.9043 L 20.519531 261.25586 C 19.59894 261.78736 18.830731 262.47865 18.228516 263.27344 C 17.626172 264.06868 17.191522 264.96808 16.9375 265.91602 C 16.683516 266.86397 16.610406 267.85973 16.734375 268.84961 C 16.858344 269.83949 16.149202 273.32065 19.992188 281.7207 C 19.992188 281.7207 27.918893 297.81853 34.144531 307.39258 C 34.144531 307.39258 43.596767 321.22769 50.560547 329.16602 L 98.564453 308.2793 A 148.82903 149.54332 0 0 0 157.40625 343.15039 L 165.71875 387.4375 C 165.71875 388.50102 165.93276 389.5143 166.32031 390.43359 L 166.32227 390.43164 C 166.70979 391.3509 167.27092 392.17713 167.96484 392.87109 C 168.65881 393.56502 169.48505 394.12608 170.4043 394.51367 C 171.32355 394.90122 173.98353 397.25701 183.17969 398.12891 C 183.17969 398.12891 201.08409 399.31157 212.48828 398.70703 C 212.48828 398.70703 229.19605 397.43861 239.55273 395.37695 L 245.47852 343.23633 A 148.82903 149.54332 0 0 0 304.84766 308.0332 L 344.9082 322.11523 C 345.82924 322.64699 346.81283 322.96778 347.80273 323.0918 L 347.80273 323.08984 C 348.7926 323.21385 349.78838 323.14074 350.73633 322.88672 C 351.68426 322.6327 352.58362 322.198 353.37891 321.5957 C 354.17416 320.99339 357.54332 319.86799 362.89648 312.33984 C 362.89648 312.33984 372.87419 297.42663 378.05273 287.24805 C 378.05273 287.24805 385.30825 272.14451 388.70117 262.14453 L 347.16016 231.42188 A 148.82903 149.54332 0 0 0 350.4082 200.34766 A 148.82903 149.54332 0 0 0 347.14453 169.19531 L 380.47852 140.5918 C 381.39955 140.06004 382.1691 139.36754 382.77148 138.57227 C 383.37383 137.77702 383.80848 136.87763 384.0625 135.92969 C 384.31648 134.98174 384.38959 133.98598 384.26562 132.99609 C 384.14168 132.00623 384.84885 128.52505 381.00586 120.125 C 381.00586 120.125 373.08111 104.02716 366.85547 94.453125 C 366.85547 94.453125 357.40128 80.618031 350.4375 72.679688 L 304.74219 92.560547 A 148.82903 149.54332 0 0 0 241.70898 56.34375 L 233.61914 13.257812 C 233.61914 12.194944 233.40466 11.18254 233.01758 10.263672 L 233.01758 10.261719 C 232.63008 9.3431527 232.06852 8.5177699 231.375 7.8242188 C 230.68105 7.1302903 229.8548 6.567272 228.93555 6.1796875 C 228.01631 5.7921147 225.35631 3.4383089 216.16016 2.5664062 C 216.16016 2.5664062 206.08884 1.9003124 196.24219 1.8222656 z M 201.21484 150.70703 A 49.642855 49.642855 0 0 1 201.58008 150.70703 A 49.642855 49.642855 0 0 1 202.17188 150.70898 A 49.642855 49.642855 0 0 1 202.76562 150.7207 A 49.642855 49.642855 0 0 1 203.35742 150.73828 A 49.642855 49.642855 0 0 1 203.94922 150.76172 A 49.642855 49.642855 0 0 1 204.54102 150.79492 A 49.642855 49.642855 0 0 1 205.13281 150.83398 A 49.642855 49.642855 0 0 1 205.72266 150.87891 A 49.642855 49.642855 0 0 1 206.3125 150.93164 A 49.642855 49.642855 0 0 1 206.90234 150.99219 A 49.642855 49.642855 0 0 1 207.49023 151.05859 A 49.642855 49.642855 0 0 1 208.07812 151.13281 A 49.642855 49.642855 0 0 1 208.66602 151.21484 A 49.642855 49.642855 0 0 1 209.25195 151.30273 A 49.642855 49.642855 0 0 1 209.83594 151.39648 A 49.642855 49.642855 0 0 1 210.41992 151.5 A 49.642855 49.642855 0 0 1 211.00195 151.60938 A 49.642855 49.642855 0 0 1 211.58398 151.72461 A 49.642855 49.642855 0 0 1 212.16211 151.84766 A 49.642855 49.642855 0 0 1 212.74023 151.97656 A 49.642855 49.642855 0 0 1 213.31836 152.11328 A 49.642855 49.642855 0 0 1 213.89258 152.25781 A 49.642855 49.642855 0 0 1 214.46484 152.4082 A 49.642855 49.642855 0 0 1 215.03711 152.56445 A 49.642855 49.642855 0 0 1 215.60547 152.72852 A 49.642855 49.642855 0 0 1 216.17383 152.90039 A 49.642855 49.642855 0 0 1 216.73828 153.07617 A 49.642855 49.642855 0 0 1 217.30078 153.26172 A 49.642855 49.642855 0 0 1 217.86328 153.45312 A 49.642855 49.642855 0 0 1 218.41992 153.65039 A 49.642855 49.642855 0 0 1 218.97656 153.85352 A 49.642855 49.642855 0 0 1 219.53125 154.06445 A 49.642855 49.642855 0 0 1 220.08203 154.2832 A 49.642855 49.642855 0 0 1 220.63086 154.50586 A 49.642855 49.642855 0 0 1 221.17578 154.73828 A 49.642855 49.642855 0 0 1 221.71875 154.97461 A 49.642855 49.642855 0 0 1 222.25977 155.21875 A 49.642855 49.642855 0 0 1 222.79688 155.46875 A 49.642855 49.642855 0 0 1 223.33008 155.72461 A 49.642855 49.642855 0 0 1 223.86133 155.98633 A 49.642855 49.642855 0 0 1 224.38867 156.25586 A 49.642855 49.642855 0 0 1 224.91406 156.53125 A 49.642855 49.642855 0 0 1 225.43555 156.8125 A 49.642855 49.642855 0 0 1 225.95312 157.10156 A 49.642855 49.642855 0 0 1 226.4668 157.39453 A 49.642855 49.642855 0 0 1 226.97852 157.69531 A 49.642855 49.642855 0 0 1 227.48633 158.00195 A 49.642855 49.642855 0 0 1 227.98828 158.3125 A 49.642855 49.642855 0 0 1 228.48828 158.63086 A 49.642855 49.642855 0 0 1 228.98438 158.95508 A 49.642855 49.642855 0 0 1 229.47656 159.28516 A 49.642855 49.642855 0 0 1 229.96484 159.62109 A 49.642855 49.642855 0 0 1 230.44922 159.96289 A 49.642855 49.642855 0 0 1 230.92969 160.31055 A 49.642855 49.642855 0 0 1 231.4043 160.66406 A 49.642855 49.642855 0 0 1 231.87695 161.02344 A 49.642855 49.642855 0 0 1 232.34375 161.38672 A 49.642855 49.642855 0 0 1 232.80664 161.75586 A 49.642855 49.642855 0 0 1 233.26367 162.13281 A 49.642855 49.642855 0 0 1 233.71875 162.51367 A 49.642855 49.642855 0 0 1 234.16797 162.89844 A 49.642855 49.642855 0 0 1 234.61133 163.29102 A 49.642855 49.642855 0 0 1 235.05273 163.6875 A 49.642855 49.642855 0 0 1 235.48633 164.08984 A 49.642855 49.642855 0 0 1 235.91797 164.49805 A 49.642855 49.642855 0 0 1 236.34375 164.91016 A 49.642855 49.642855 0 0 1 236.76367 165.32617 A 49.642855 49.642855 0 0 1 237.17969 165.75 A 49.642855 49.642855 0 0 1 237.58984 166.17578 A 49.642855 49.642855 0 0 1 237.99414 166.60938 A 49.642855 49.642855 0 0 1 238.39453 167.04492 A 49.642855 49.642855 0 0 1 238.78906 167.48828 A 49.642855 49.642855 0 0 1 239.17969 167.93359 A 49.642855 49.642855 0 0 1 239.5625 168.38477 A 49.642855 49.642855 0 0 1 239.94141 168.83984 A 49.642855 49.642855 0 0 1 240.31445 169.30078 A 49.642855 49.642855 0 0 1 240.68359 169.76562 A 49.642855 49.642855 0 0 1 241.04492 170.23438 A 49.642855 49.642855 0 0 1 241.40234 170.70703 A 49.642855 49.642855 0 0 1 241.75195 171.18359 A 49.642855 49.642855 0 0 1 242.09766 171.66602 A 49.642855 49.642855 0 0 1 242.4375 172.15234 A 49.642855 49.642855 0 0 1 242.77148 172.64062 A 49.642855 49.642855 0 0 1 243.09961 173.13477 A 49.642855 49.642855 0 0 1 243.41992 173.63281 A 49.642855 49.642855 0 0 1 243.73633 174.13281 A 49.642855 49.642855 0 0 1 244.04688 174.63867 A 49.642855 49.642855 0 0 1 244.34961 175.14648 A 49.642855 49.642855 0 0 1 244.64844 175.66016 A 49.642855 49.642855 0 0 1 244.93945 176.17578 A 49.642855 49.642855 0 0 1 245.22461 176.69336 A 49.642855 49.642855 0 0 1 245.50391 177.2168 A 49.642855 49.642855 0 0 1 245.77734 177.74219 A 49.642855 49.642855 0 0 1 246.04297 178.27148 A 49.642855 49.642855 0 0 1 246.30469 178.80469 A 49.642855 49.642855 0 0 1 246.55859 179.33984 A 49.642855 49.642855 0 0 1 246.80469 179.87695 A 49.642855 49.642855 0 0 1 247.04688 180.41797 A 49.642855 49.642855 0 0 1 247.28125 180.96289 A 49.642855 49.642855 0 0 1 247.50977 181.50977 A 49.642855 49.642855 0 0 1 247.73047 182.05859 A 49.642855 49.642855 0 0 1 247.94531 182.61133 A 49.642855 49.642855 0 0 1 248.1543 183.16602 A 49.642855 49.642855 0 0 1 248.35547 183.72266 A 49.642855 49.642855 0 0 1 248.55078 184.2832 A 49.642855 49.642855 0 0 1 248.74023 184.84375 A 49.642855 49.642855 0 0 1 248.92188 185.4082 A 49.642855 49.642855 0 0 1 249.0957 185.97461 A 49.642855 49.642855 0 0 1 249.26367 186.54297 A 49.642855 49.642855 0 0 1 249.42578 187.11133 A 49.642855 49.642855 0 0 1 249.58008 187.68359 A 49.642855 49.642855 0 0 1 249.72852 188.25781 A 49.642855 49.642855 0 0 1 249.86914 188.83398 A 49.642855 49.642855 0 0 1 250.00195 189.41016 A 49.642855 49.642855 0 0 1 250.13086 189.98828 A 49.642855 49.642855 0 0 1 250.25 190.56836 A 49.642855 49.642855 0 0 1 250.36328 191.15039 A 49.642855 49.642855 0 0 1 250.46875 191.73438 A 49.642855 49.642855 0 0 1 250.56836 192.31836 A 49.642855 49.642855 0 0 1 250.66211 192.90234 A 49.642855 49.642855 0 0 1 250.74609 193.49023 A 49.642855 49.642855 0 0 1 250.82422 194.07617 A 49.642855 49.642855 0 0 1 250.89648 194.66406 A 49.642855 49.642855 0 0 1 250.96094 195.25391 A 49.642855 49.642855 0 0 1 251.01758 195.84375 A 49.642855 49.642855 0 0 1 251.06836 196.43359 A 49.642855 49.642855 0 0 1 251.11133 197.02539 A 49.642855 49.642855 0 0 1 251.14844 197.61523 A 49.642855 49.642855 0 0 1 251.17578 198.20703 A 49.642855 49.642855 0 0 1 251.19922 198.79883 A 49.642855 49.642855 0 0 1 251.21289 199.39258 A 49.642855 49.642855 0 0 1 251.2207 199.98438 A 49.642855 49.642855 0 0 1 251.22266 200.34961 A 49.642855 49.642855 0 0 1 251.21875 200.94141 A 49.642855 49.642855 0 0 1 251.20898 201.5332 A 49.642855 49.642855 0 0 1 251.19141 202.12695 A 49.642855 49.642855 0 0 1 251.16602 202.71875 A 49.642855 49.642855 0 0 1 251.13477 203.30859 A 49.642855 49.642855 0 0 1 251.0957 203.90039 A 49.642855 49.642855 0 0 1 251.04883 204.49219 A 49.642855 49.642855 0 0 1 250.99609 205.08203 A 49.642855 49.642855 0 0 1 250.9375 205.67188 A 49.642855 49.642855 0 0 1 250.86914 206.25977 A 49.642855 49.642855 0 0 1 250.79492 206.84766 A 49.642855 49.642855 0 0 1 250.71484 207.43359 A 49.642855 49.642855 0 0 1 250.62695 208.01953 A 49.642855 49.642855 0 0 1 250.53125 208.60547 A 49.642855 49.642855 0 0 1 250.42969 209.18945 A 49.642855 49.642855 0 0 1 250.32031 209.77148 A 49.642855 49.642855 0 0 1 250.20508 210.35156 A 49.642855 49.642855 0 0 1 250.08203 210.93164 A 49.642855 49.642855 0 0 1 249.95117 211.50977 A 49.642855 49.642855 0 0 1 249.81445 212.08594 A 49.642855 49.642855 0 0 1 249.67188 212.66016 A 49.642855 49.642855 0 0 1 249.52148 213.23438 A 49.642855 49.642855 0 0 1 249.36523 213.80469 A 49.642855 49.642855 0 0 1 249.20117 214.375 A 49.642855 49.642855 0 0 1 249.0293 214.94141 A 49.642855 49.642855 0 0 1 248.85156 215.50781 A 49.642855 49.642855 0 0 1 248.66797 216.07031 A 49.642855 49.642855 0 0 1 248.47656 216.63086 A 49.642855 49.642855 0 0 1 248.2793 217.18945 A 49.642855 49.642855 0 0 1 248.07422 217.74609 A 49.642855 49.642855 0 0 1 247.86328 218.29883 A 49.642855 49.642855 0 0 1 247.64648 218.85156 A 49.642855 49.642855 0 0 1 247.42188 219.39844 A 49.642855 49.642855 0 0 1 247.19141 219.94531 A 49.642855 49.642855 0 0 1 246.95508 220.48828 A 49.642855 49.642855 0 0 1 246.71094 221.02734 A 49.642855 49.642855 0 0 1 246.46094 221.56445 A 49.642855 49.642855 0 0 1 246.20508 222.09961 A 49.642855 49.642855 0 0 1 245.94141 222.63086 A 49.642855 49.642855 0 0 1 245.67188 223.1582 A 49.642855 49.642855 0 0 1 245.39648 223.68164 A 49.642855 49.642855 0 0 1 245.11523 224.20312 A 49.642855 49.642855 0 0 1 244.82812 224.72266 A 49.642855 49.642855 0 0 1 244.5332 225.23633 A 49.642855 49.642855 0 0 1 244.23438 225.74609 A 49.642855 49.642855 0 0 1 243.92773 226.25391 A 49.642855 49.642855 0 0 1 243.61523 226.75781 A 49.642855 49.642855 0 0 1 243.29688 227.25781 A 49.642855 49.642855 0 0 1 242.97266 227.75391 A 49.642855 49.642855 0 0 1 242.64258 228.24609 A 49.642855 49.642855 0 0 1 242.30664 228.73438 A 49.642855 49.642855 0 0 1 241.96484 229.2168 A 49.642855 49.642855 0 0 1 241.61914 229.69727 A 49.642855 49.642855 0 0 1 241.26562 230.17383 A 49.642855 49.642855 0 0 1 240.90625 230.64453 A 49.642855 49.642855 0 0 1 240.54297 231.11133 A 49.642855 49.642855 0 0 1 240.17188 231.57422 A 49.642855 49.642855 0 0 1 239.79688 232.0332 A 49.642855 49.642855 0 0 1 239.41602 232.48633 A 49.642855 49.642855 0 0 1 239.0293 232.93555 A 49.642855 49.642855 0 0 1 238.63867 233.38086 A 49.642855 49.642855 0 0 1 238.24219 233.82031 A 49.642855 49.642855 0 0 1 237.83984 234.25586 A 49.642855 49.642855 0 0 1 237.43164 234.68555 A 49.642855 49.642855 0 0 1 237.01953 235.11133 A 49.642855 49.642855 0 0 1 236.60156 235.5332 A 49.642855 49.642855 0 0 1 236.17969 235.94727 A 49.642855 49.642855 0 0 1 235.75195 236.35742 A 49.642855 49.642855 0 0 1 235.32031 236.76367 A 49.642855 49.642855 0 0 1 234.88281 237.16406 A 49.642855 49.642855 0 0 1 234.44141 237.55859 A 49.642855 49.642855 0 0 1 233.99609 237.94727 A 49.642855 49.642855 0 0 1 233.54492 238.33203 A 49.642855 49.642855 0 0 1 233.08789 238.71094 A 49.642855 49.642855 0 0 1 232.62891 239.08398 A 49.642855 49.642855 0 0 1 232.16406 239.45117 A 49.642855 49.642855 0 0 1 231.69531 239.81445 A 49.642855 49.642855 0 0 1 231.22266 240.16992 A 49.642855 49.642855 0 0 1 230.74414 240.52148 A 49.642855 49.642855 0 0 1 230.26367 240.86719 A 49.642855 49.642855 0 0 1 229.77734 241.20703 A 49.642855 49.642855 0 0 1 229.28711 241.53906 A 49.642855 49.642855 0 0 1 228.79492 241.86719 A 49.642855 49.642855 0 0 1 228.29688 242.18945 A 49.642855 49.642855 0 0 1 227.79492 242.50586 A 49.642855 49.642855 0 0 1 227.29102 242.81445 A 49.642855 49.642855 0 0 1 226.78125 243.11914 A 49.642855 49.642855 0 0 1 226.26953 243.41602 A 49.642855 49.642855 0 0 1 225.75391 243.70898 A 49.642855 49.642855 0 0 1 225.23438 243.99414 A 49.642855 49.642855 0 0 1 224.71289 244.27344 A 49.642855 49.642855 0 0 1 224.18555 244.54492 A 49.642855 49.642855 0 0 1 223.6582 244.8125 A 49.642855 49.642855 0 0 1 223.125 245.07227 A 49.642855 49.642855 0 0 1 222.58984 245.32617 A 49.642855 49.642855 0 0 1 222.05078 245.57422 A 49.642855 49.642855 0 0 1 221.50977 245.81445 A 49.642855 49.642855 0 0 1 220.9668 246.05078 A 49.642855 49.642855 0 0 1 220.41992 246.27734 A 49.642855 49.642855 0 0 1 219.86914 246.5 A 49.642855 49.642855 0 0 1 219.31836 246.71484 A 49.642855 49.642855 0 0 1 218.76367 246.92383 A 49.642855 49.642855 0 0 1 218.20703 247.125 A 49.642855 49.642855 0 0 1 217.64648 247.32031 A 49.642855 49.642855 0 0 1 217.08594 247.50781 A 49.642855 49.642855 0 0 1 216.52148 247.68945 A 49.642855 49.642855 0 0 1 215.95508 247.86523 A 49.642855 49.642855 0 0 1 215.38672 248.0332 A 49.642855 49.642855 0 0 1 214.81641 248.19531 A 49.642855 49.642855 0 0 1 214.24414 248.34961 A 49.642855 49.642855 0 0 1 213.67188 248.49609 A 49.642855 49.642855 0 0 1 213.0957 248.63672 A 49.642855 49.642855 0 0 1 212.51953 248.77148 A 49.642855 49.642855 0 0 1 211.93945 248.89844 A 49.642855 49.642855 0 0 1 211.35938 249.01953 A 49.642855 49.642855 0 0 1 210.77734 249.13281 A 49.642855 49.642855 0 0 1 210.19531 249.23828 A 49.642855 49.642855 0 0 1 209.61133 249.33789 A 49.642855 49.642855 0 0 1 209.02539 249.42969 A 49.642855 49.642855 0 0 1 208.43945 249.51562 A 49.642855 49.642855 0 0 1 207.85156 249.59375 A 49.642855 49.642855 0 0 1 207.26367 249.66602 A 49.642855 49.642855 0 0 1 206.67578 249.73047 A 49.642855 49.642855 0 0 1 206.08594 249.78711 A 49.642855 49.642855 0 0 1 205.49609 249.83789 A 49.642855 49.642855 0 0 1 204.9043 249.88086 A 49.642855 49.642855 0 0 1 204.3125 249.91602 A 49.642855 49.642855 0 0 1 203.7207 249.94531 A 49.642855 49.642855 0 0 1 203.12891 249.9668 A 49.642855 49.642855 0 0 1 202.53711 249.98242 A 49.642855 49.642855 0 0 1 201.94531 249.99023 A 49.642855 49.642855 0 0 1 201.58008 249.99219 A 49.642855 49.642855 0 0 1 200.98828 249.98828 A 49.642855 49.642855 0 0 1 200.39453 249.97852 A 49.642855 49.642855 0 0 1 199.80273 249.96094 A 49.642855 49.642855 0 0 1 199.21094 249.93555 A 49.642855 49.642855 0 0 1 198.61914 249.9043 A 49.642855 49.642855 0 0 1 198.02734 249.86523 A 49.642855 49.642855 0 0 1 197.4375 249.81836 A 49.642855 49.642855 0 0 1 196.84766 249.76562 A 49.642855 49.642855 0 0 1 196.25781 249.70508 A 49.642855 49.642855 0 0 1 195.66992 249.63867 A 49.642855 49.642855 0 0 1 195.08203 249.56445 A 49.642855 49.642855 0 0 1 194.49414 249.48438 A 49.642855 49.642855 0 0 1 193.9082 249.39453 A 49.642855 49.642855 0 0 1 193.32422 249.30078 A 49.642855 49.642855 0 0 1 192.74023 249.19922 A 49.642855 49.642855 0 0 1 192.1582 249.08984 A 49.642855 49.642855 0 0 1 191.57617 248.97266 A 49.642855 49.642855 0 0 1 190.99805 248.85156 A 49.642855 49.642855 0 0 1 190.41992 248.7207 A 49.642855 49.642855 0 0 1 189.8418 248.58398 A 49.642855 49.642855 0 0 1 189.26758 248.44141 A 49.642855 49.642855 0 0 1 188.69531 248.29102 A 49.642855 49.642855 0 0 1 188.12305 248.13281 A 49.642855 49.642855 0 0 1 187.55469 247.96875 A 49.642855 49.642855 0 0 1 186.98633 247.79883 A 49.642855 49.642855 0 0 1 186.42188 247.62109 A 49.642855 49.642855 0 0 1 185.85938 247.4375 A 49.642855 49.642855 0 0 1 185.29688 247.24609 A 49.642855 49.642855 0 0 1 184.73828 247.04883 A 49.642855 49.642855 0 0 1 184.18359 246.84375 A 49.642855 49.642855 0 0 1 183.62891 246.63281 A 49.642855 49.642855 0 0 1 183.07812 246.41602 A 49.642855 49.642855 0 0 1 182.5293 246.19141 A 49.642855 49.642855 0 0 1 181.98438 245.96094 A 49.642855 49.642855 0 0 1 181.44141 245.72266 A 49.642855 49.642855 0 0 1 180.90039 245.48047 A 49.642855 49.642855 0 0 1 180.36328 245.23047 A 49.642855 49.642855 0 0 1 179.83008 244.97266 A 49.642855 49.642855 0 0 1 179.29883 244.71094 A 49.642855 49.642855 0 0 1 178.77148 244.44141 A 49.642855 49.642855 0 0 1 178.24609 244.16602 A 49.642855 49.642855 0 0 1 177.72461 243.88477 A 49.642855 49.642855 0 0 1 177.20703 243.59766 A 49.642855 49.642855 0 0 1 176.69336 243.30273 A 49.642855 49.642855 0 0 1 176.18164 243.00195 A 49.642855 49.642855 0 0 1 175.67383 242.69727 A 49.642855 49.642855 0 0 1 175.17188 242.38477 A 49.642855 49.642855 0 0 1 174.67188 242.06641 A 49.642855 49.642855 0 0 1 174.17578 241.74219 A 49.642855 49.642855 0 0 1 173.68359 241.41211 A 49.642855 49.642855 0 0 1 173.19531 241.07617 A 49.642855 49.642855 0 0 1 172.71094 240.73438 A 49.642855 49.642855 0 0 1 172.23047 240.38672 A 49.642855 49.642855 0 0 1 171.75586 240.0332 A 49.642855 49.642855 0 0 1 171.2832 239.67578 A 49.642855 49.642855 0 0 1 170.81641 239.31055 A 49.642855 49.642855 0 0 1 170.35352 238.94141 A 49.642855 49.642855 0 0 1 169.89648 238.56641 A 49.642855 49.642855 0 0 1 169.44141 238.18555 A 49.642855 49.642855 0 0 1 168.99219 237.79883 A 49.642855 49.642855 0 0 1 168.54883 237.40625 A 49.642855 49.642855 0 0 1 168.10742 237.00977 A 49.642855 49.642855 0 0 1 167.67383 236.60742 A 49.642855 49.642855 0 0 1 167.24219 236.20117 A 49.642855 49.642855 0 0 1 166.81641 235.78906 A 49.642855 49.642855 0 0 1 166.39648 235.37109 A 49.642855 49.642855 0 0 1 165.98047 234.94922 A 49.642855 49.642855 0 0 1 165.57031 234.52148 A 49.642855 49.642855 0 0 1 165.16602 234.08984 A 49.642855 49.642855 0 0 1 164.76562 233.65234 A 49.642855 49.642855 0 0 1 164.37109 233.21094 A 49.642855 49.642855 0 0 1 163.98047 232.76367 A 49.642855 49.642855 0 0 1 163.59766 232.3125 A 49.642855 49.642855 0 0 1 163.21875 231.85742 A 49.642855 49.642855 0 0 1 162.8457 231.39648 A 49.642855 49.642855 0 0 1 162.47656 230.93359 A 49.642855 49.642855 0 0 1 162.11523 230.46484 A 49.642855 49.642855 0 0 1 161.75781 229.99023 A 49.642855 49.642855 0 0 1 161.4082 229.51367 A 49.642855 49.642855 0 0 1 161.0625 229.03125 A 49.642855 49.642855 0 0 1 160.72266 228.54688 A 49.642855 49.642855 0 0 1 160.38867 228.05664 A 49.642855 49.642855 0 0 1 160.06055 227.5625 A 49.642855 49.642855 0 0 1 159.74023 227.06641 A 49.642855 49.642855 0 0 1 159.42383 226.56445 A 49.642855 49.642855 0 0 1 159.11328 226.05859 A 49.642855 49.642855 0 0 1 158.81055 225.55078 A 49.642855 49.642855 0 0 1 158.51172 225.03906 A 49.642855 49.642855 0 0 1 158.2207 224.52344 A 49.642855 49.642855 0 0 1 157.93555 224.00391 A 49.642855 49.642855 0 0 1 157.65625 223.48047 A 49.642855 49.642855 0 0 1 157.38281 222.95508 A 49.642855 49.642855 0 0 1 157.11719 222.42578 A 49.642855 49.642855 0 0 1 156.85547 221.89453 A 49.642855 49.642855 0 0 1 156.60156 221.35938 A 49.642855 49.642855 0 0 1 156.35547 220.82031 A 49.642855 49.642855 0 0 1 156.11328 220.2793 A 49.642855 49.642855 0 0 1 155.87891 219.73438 A 49.642855 49.642855 0 0 1 155.65039 219.1875 A 49.642855 49.642855 0 0 1 155.42969 218.63867 A 49.642855 49.642855 0 0 1 155.21484 218.08594 A 49.642855 49.642855 0 0 1 155.00586 217.53125 A 49.642855 49.642855 0 0 1 154.80469 216.97461 A 49.642855 49.642855 0 0 1 154.60938 216.41602 A 49.642855 49.642855 0 0 1 154.41992 215.85352 A 49.642855 49.642855 0 0 1 154.23828 215.28906 A 49.642855 49.642855 0 0 1 154.06445 214.72461 A 49.642855 49.642855 0 0 1 153.89648 214.15625 A 49.642855 49.642855 0 0 1 153.73438 213.58594 A 49.642855 49.642855 0 0 1 153.58008 213.01367 A 49.642855 49.642855 0 0 1 153.43164 212.43945 A 49.642855 49.642855 0 0 1 153.29102 211.86523 A 49.642855 49.642855 0 0 1 153.1582 211.28711 A 49.642855 49.642855 0 0 1 153.0293 210.70898 A 49.642855 49.642855 0 0 1 152.91016 210.12891 A 49.642855 49.642855 0 0 1 152.79688 209.54688 A 49.642855 49.642855 0 0 1 152.69141 208.96484 A 49.642855 49.642855 0 0 1 152.5918 208.38086 A 49.642855 49.642855 0 0 1 152.49805 207.79492 A 49.642855 49.642855 0 0 1 152.41406 207.20898 A 49.642855 49.642855 0 0 1 152.33594 206.62109 A 49.642855 49.642855 0 0 1 152.26367 206.0332 A 49.642855 49.642855 0 0 1 152.19922 205.44336 A 49.642855 49.642855 0 0 1 152.14258 204.85547 A 49.642855 49.642855 0 0 1 152.0918 204.26367 A 49.642855 49.642855 0 0 1 152.04883 203.67383 A 49.642855 49.642855 0 0 1 152.01172 203.08203 A 49.642855 49.642855 0 0 1 151.98438 202.49023 A 49.642855 49.642855 0 0 1 151.96094 201.89844 A 49.642855 49.642855 0 0 1 151.94727 201.30664 A 49.642855 49.642855 0 0 1 151.93945 200.71289 A 49.642855 49.642855 0 0 1 151.9375 200.34961 A 49.642855 49.642855 0 0 1 151.94141 199.75586 A 49.642855 49.642855 0 0 1 151.95117 199.16406 A 49.642855 49.642855 0 0 1 151.96875 198.57227 A 49.642855 49.642855 0 0 1 151.99414 197.98047 A 49.642855 49.642855 0 0 1 152.02539 197.38867 A 49.642855 49.642855 0 0 1 152.06445 196.79688 A 49.642855 49.642855 0 0 1 152.11133 196.20703 A 49.642855 49.642855 0 0 1 152.16406 195.61719 A 49.642855 49.642855 0 0 1 152.22266 195.02734 A 49.642855 49.642855 0 0 1 152.29102 194.4375 A 49.642855 49.642855 0 0 1 152.36523 193.84961 A 49.642855 49.642855 0 0 1 152.44531 193.26367 A 49.642855 49.642855 0 0 1 152.5332 192.67773 A 49.642855 49.642855 0 0 1 152.62891 192.09375 A 49.642855 49.642855 0 0 1 152.73047 191.50977 A 49.642855 49.642855 0 0 1 152.83984 190.92773 A 49.642855 49.642855 0 0 1 152.95508 190.3457 A 49.642855 49.642855 0 0 1 153.07812 189.76562 A 49.642855 49.642855 0 0 1 153.20898 189.1875 A 49.642855 49.642855 0 0 1 153.3457 188.61133 A 49.642855 49.642855 0 0 1 153.48828 188.03711 A 49.642855 49.642855 0 0 1 153.63867 187.46289 A 49.642855 49.642855 0 0 1 153.79492 186.89258 A 49.642855 49.642855 0 0 1 153.95898 186.32227 A 49.642855 49.642855 0 0 1 154.13086 185.75586 A 49.642855 49.642855 0 0 1 154.30859 185.19141 A 49.642855 49.642855 0 0 1 154.49219 184.62695 A 49.642855 49.642855 0 0 1 154.68359 184.06641 A 49.642855 49.642855 0 0 1 154.88086 183.50781 A 49.642855 49.642855 0 0 1 155.08594 182.95117 A 49.642855 49.642855 0 0 1 155.29688 182.39844 A 49.642855 49.642855 0 0 1 155.51367 181.84766 A 49.642855 49.642855 0 0 1 155.73828 181.29883 A 49.642855 49.642855 0 0 1 155.96875 180.75391 A 49.642855 49.642855 0 0 1 156.20508 180.21094 A 49.642855 49.642855 0 0 1 156.44922 179.66992 A 49.642855 49.642855 0 0 1 156.69922 179.13281 A 49.642855 49.642855 0 0 1 156.95508 178.59961 A 49.642855 49.642855 0 0 1 157.21875 178.06836 A 49.642855 49.642855 0 0 1 157.48828 177.53906 A 49.642855 49.642855 0 0 1 157.76367 177.01562 A 49.642855 49.642855 0 0 1 158.04492 176.49414 A 49.642855 49.642855 0 0 1 158.33203 175.97656 A 49.642855 49.642855 0 0 1 158.62695 175.46094 A 49.642855 49.642855 0 0 1 158.92578 174.95117 A 49.642855 49.642855 0 0 1 159.23242 174.44336 A 49.642855 49.642855 0 0 1 159.54492 173.93945 A 49.642855 49.642855 0 0 1 159.86328 173.43945 A 49.642855 49.642855 0 0 1 160.1875 172.94336 A 49.642855 49.642855 0 0 1 160.51758 172.45312 A 49.642855 49.642855 0 0 1 160.85352 171.96484 A 49.642855 49.642855 0 0 1 161.19531 171.48047 A 49.642855 49.642855 0 0 1 161.54102 171 A 49.642855 49.642855 0 0 1 161.89453 170.52539 A 49.642855 49.642855 0 0 1 162.25391 170.05273 A 49.642855 49.642855 0 0 1 162.61719 169.58594 A 49.642855 49.642855 0 0 1 162.98828 169.12305 A 49.642855 49.642855 0 0 1 163.36328 168.66406 A 49.642855 49.642855 0 0 1 163.74414 168.21094 A 49.642855 49.642855 0 0 1 164.13086 167.76172 A 49.642855 49.642855 0 0 1 164.52148 167.31641 A 49.642855 49.642855 0 0 1 164.91797 166.87695 A 49.642855 49.642855 0 0 1 165.32031 166.44141 A 49.642855 49.642855 0 0 1 165.72852 166.01172 A 49.642855 49.642855 0 0 1 166.14062 165.58594 A 49.642855 49.642855 0 0 1 166.55859 165.16602 A 49.642855 49.642855 0 0 1 166.98047 164.75 A 49.642855 49.642855 0 0 1 167.4082 164.33984 A 49.642855 49.642855 0 0 1 167.83984 163.93359 A 49.642855 49.642855 0 0 1 168.27734 163.53516 A 49.642855 49.642855 0 0 1 168.71875 163.13867 A 49.642855 49.642855 0 0 1 169.16406 162.75 A 49.642855 49.642855 0 0 1 169.61523 162.36523 A 49.642855 49.642855 0 0 1 170.07227 161.98633 A 49.642855 49.642855 0 0 1 170.53125 161.61328 A 49.642855 49.642855 0 0 1 170.99609 161.24609 A 49.642855 49.642855 0 0 1 171.46484 160.88281 A 49.642855 49.642855 0 0 1 171.9375 160.52734 A 49.642855 49.642855 0 0 1 172.41602 160.17578 A 49.642855 49.642855 0 0 1 172.89648 159.83008 A 49.642855 49.642855 0 0 1 173.38281 159.49219 A 49.642855 49.642855 0 0 1 173.87305 159.1582 A 49.642855 49.642855 0 0 1 174.36523 158.83008 A 49.642855 49.642855 0 0 1 174.86328 158.50781 A 49.642855 49.642855 0 0 1 175.36523 158.19336 A 49.642855 49.642855 0 0 1 175.86914 157.88281 A 49.642855 49.642855 0 0 1 176.37891 157.57812 A 49.642855 49.642855 0 0 1 176.89062 157.28125 A 49.642855 49.642855 0 0 1 177.40625 156.99023 A 49.642855 49.642855 0 0 1 177.92578 156.70508 A 49.642855 49.642855 0 0 1 178.44727 156.42578 A 49.642855 49.642855 0 0 1 178.97461 156.15234 A 49.642855 49.642855 0 0 1 179.50195 155.88477 A 49.642855 49.642855 0 0 1 180.03516 155.625 A 49.642855 49.642855 0 0 1 180.57031 155.37109 A 49.642855 49.642855 0 0 1 181.10938 155.12305 A 49.642855 49.642855 0 0 1 181.65039 154.88281 A 49.642855 49.642855 0 0 1 182.19336 154.64844 A 49.642855 49.642855 0 0 1 182.74023 154.41992 A 49.642855 49.642855 0 0 1 183.29102 154.19727 A 49.642855 49.642855 0 0 1 183.8418 153.98242 A 49.642855 49.642855 0 0 1 184.39648 153.77539 A 49.642855 49.642855 0 0 1 184.95312 153.57227 A 49.642855 49.642855 0 0 1 185.51367 153.37891 A 49.642855 49.642855 0 0 1 186.07422 153.18945 A 49.642855 49.642855 0 0 1 186.63867 153.00781 A 49.642855 49.642855 0 0 1 187.20508 152.83203 A 49.642855 49.642855 0 0 1 187.77344 152.66406 A 49.642855 49.642855 0 0 1 188.34375 152.50391 A 49.642855 49.642855 0 0 1 188.91602 152.34961 A 49.642855 49.642855 0 0 1 189.48828 152.20117 A 49.642855 49.642855 0 0 1 190.06445 152.06055 A 49.642855 49.642855 0 0 1 190.64062 151.92578 A 49.642855 49.642855 0 0 1 191.2207 151.79883 A 49.642855 49.642855 0 0 1 191.80078 151.67969 A 49.642855 49.642855 0 0 1 192.38281 151.56641 A 49.642855 49.642855 0 0 1 192.96484 151.45898 A 49.642855 49.642855 0 0 1 193.54883 151.35938 A 49.642855 49.642855 0 0 1 194.13477 151.26758 A 49.642855 49.642855 0 0 1 194.7207 151.18164 A 49.642855 49.642855 0 0 1 195.30859 151.10352 A 49.642855 49.642855 0 0 1 195.89648 151.0332 A 49.642855 49.642855 0 0 1 196.48438 150.96875 A 49.642855 49.642855 0 0 1 197.07422 150.91016 A 49.642855 49.642855 0 0 1 197.66406 150.86133 A 49.642855 49.642855 0 0 1 198.25586 150.81836 A 49.642855 49.642855 0 0 1 198.84766 150.78125 A 49.642855 49.642855 0 0 1 199.43945 150.75195 A 49.642855 49.642855 0 0 1 200.03125 150.73047 A 49.642855 49.642855 0 0 1 200.62305 150.71484 A 49.642855 49.642855 0 0 1 201.21484 150.70703 z "
       transform="scale(0.26458333)" />
  </g>
</svg>
